# xmcd CD database file
#
# Track frame offsets:
#	150
#	19452
#	33397
#	47356
#	67118
#	79377
#	93308
#	107560
#	124626
#	135973
#	154599
#	168816
#	184649
#	197480
#	208604
#	222333
#	238765
#	261425
#
# Disc length: 3887 seconds
#
# Revision: 0
# Processed by: cddbd v1.5.2PL0 Copyright (c) Steve Scherf et al.
# Submitted via: CDex 1.51
#
DISCID=f40f2d12
DTITLE=Duane Dee - A Tribute To Ray Price
DYEAR=1900
DGENRE=Country
TTITLE0=To Nightlife
TTITLE1=It Should Be Easier Now
TTITLE2=Burning Memories
TTITLE3=Dont Touch Me
TTITLE4=Crazy Arms
TTITLE5=A Legend In My Time
TTITLE6=A Way To Survive
TTITLE7=Faded Love
TTITLE8=Healing Hands Of Time
TTITLE9=Dont You Ever Get Tired (Of Hurting Me)
TTITLE10=Headaches By The Number
TTITLE11=Unloved, Unwanted
TTITLE12=Here Comes My Baby
TTITLE13=Home In San Antone
TTITLE14=The Other Woman
TTITLE15=Touch My Heart
TTITLE16=Thats All That Matters
TTITLE17=Danny Boy
EXTD=
EXTT0=
EXTT1=
EXTT2=
EXTT3=
EXTT4=
EXTT5=
EXTT6=
EXTT7=
EXTT8=
EXTT9=
EXTT10=
EXTT11=
EXTT12=
EXTT13=
EXTT14=
EXTT15=
EXTT16=
EXTT17=
PLAYORDER=
